<svg width="24" height="18" viewBox="0 0 24 18" fill="none" xmlns="http://www.w3.org/2000/svg">
<g id="Group 1">
<path id="Vector" d="M23.3374 9.07826C23.3374 3.70929 18.8561 -0.00161951 13.9459 6.41413e-07H9.72051C4.75187 -0.00178153 0.662231 3.71042 0.662231 9.07826C0.662231 13.989 4.75198 18.0237 9.72051 17.9999H13.9459C18.8557 18.0235 23.3374 13.9877 23.3374 9.07826Z" fill="#0079BE"/>
<path id="Vector_2" d="M9.74714 0.759521C5.20699 0.760926 1.52811 4.4485 1.52649 8.99962C1.52762 13.55 5.20667 17.237 9.74714 17.2386C14.2883 17.2373 17.9683 13.55 17.9689 8.99962C17.9683 4.44839 14.2884 0.761142 9.74714 0.759521Z" fill="white"/>
<path id="Vector_3" d="M4.55103 8.97918C4.55535 6.75525 5.94149 4.85881 7.8961 4.10522V13.8521C5.94149 13.0989 4.55529 11.2034 4.55103 8.97924V8.97918ZM11.6257 13.8545V4.10549C13.5811 4.8573 14.9694 6.75482 14.9729 8.97978C14.9694 11.2054 13.5811 13.1016 11.6257 13.8548V13.8545Z" fill="#0079BE"/>
</g>
</svg>
