<svg width="31" height="10" viewBox="0 0 31 10" fill="none" xmlns="http://www.w3.org/2000/svg">
<g id="visa">
<path id="Vector" d="M28.182 0.526123H26.296C25.7259 0.526123 25.2873 0.701562 25.0241 1.27174L21.4276 9.47349H23.9715C23.9715 9.47349 24.4101 8.377 24.4978 8.11384C24.7609 8.11384 27.2609 8.11384 27.6118 8.11384C27.6995 8.42086 27.9188 9.42963 27.9188 9.42963H30.1995L28.182 0.526123ZM25.1995 6.27174C25.4188 5.74542 26.1645 3.77174 26.1645 3.77174C26.1645 3.8156 26.3838 3.24542 26.4715 2.9384L26.6469 3.72788C26.6469 3.72788 27.1294 5.877 27.2171 6.3156H25.1995V6.27174Z" fill="#3362AB"/>
<path id="Vector_2" d="M21.6034 6.53464C21.6034 8.37674 19.9368 9.60481 17.3491 9.60481C16.2526 9.60481 15.1999 9.38551 14.6298 9.12236L14.9806 7.10481L15.2877 7.23639C16.0771 7.58727 16.6034 7.71885 17.5684 7.71885C18.2701 7.71885 19.0157 7.45569 19.0157 6.84166C19.0157 6.44692 18.7087 6.18376 17.7438 5.74516C16.8227 5.30657 15.5947 4.60481 15.5947 3.33288C15.5947 1.5785 17.3052 0.394287 19.7175 0.394287C20.6385 0.394287 21.428 0.569726 21.9105 0.789024L21.5596 2.71885L21.3841 2.54341C20.9455 2.36797 20.3754 2.19253 19.542 2.19253C18.621 2.23639 18.1824 2.63113 18.1824 2.98201C18.1824 3.37674 18.7087 3.68376 19.542 4.0785C20.9455 4.73639 21.6034 5.48201 21.6034 6.53464Z" fill="#3362AB"/>
<path id="Vector_3" d="M0.199829 0.613061L0.243689 0.437622H4.01562C4.54193 0.437622 4.93667 0.613061 5.06825 1.18324L5.90158 5.1306C5.06825 3.02534 3.13843 1.31482 0.199829 0.613061Z" fill="#F9B50B"/>
<path id="Vector_4" d="M11.2089 0.526037L7.39313 9.42955H4.80541L2.61243 1.97341C4.19137 2.98218 5.50716 4.56113 5.98962 5.65762L6.25278 6.57867L8.6212 0.482178H11.2089V0.526037Z" fill="#3362AB"/>
<path id="Vector_5" d="M12.2173 0.482178H14.6296L13.0945 9.42955H10.6823L12.2173 0.482178Z" fill="#3362AB"/>
</g>
</svg>
